<svg width="141" height="38" viewBox="0 0 141 38" fill="none" xmlns="http://www.w3.org/2000/svg">
<path d="M84.9935 23.5816L90.2707 13.5625L97.0557 31.0959L106.856 6.88318L111.38 21.9117H133.419" stroke="white" stroke-width="4"/>
<path d="M88.2507 17.974L79.6034 33.5393H75.2797" stroke="white" stroke-width="4"/>
<path d="M141 32.6749H121.976V3.2738H140.296" stroke="white" stroke-width="4"/>
<path d="M61.4438 1.5437V33.539H77.8739" stroke="white" stroke-width="4"/>
<path d="M54.5259 36.1332L42.868 6.73207L30.3133 36.1332" stroke="white" stroke-width="4"/>
<path d="M25.2385 6.49273C23.0582 5.44465 20.6474 4.96775 18.2323 5.1068C15.8172 5.24584 13.4771 5.99628 11.4315 7.28766C9.38595 8.57904 7.70206 10.369 6.53791 12.4896C5.37376 14.6101 4.76752 16.9917 4.7761 19.4108C4.78468 21.8299 5.40781 24.2071 6.58697 26.3193C7.76614 28.4316 9.46269 30.2096 11.5174 31.4864C13.572 32.7632 15.9175 33.497 18.3335 33.6189C20.7495 33.7408 23.1569 33.2468 25.3296 32.1833" stroke="white" stroke-width="4"/>
<path d="M35.5011 26.6207H49.3369" stroke="white" stroke-width="4"/>
</svg>
