<svg width="96" height="96" viewBox="0 0 96 96" fill="none" xmlns="http://www.w3.org/2000/svg">
<path d="M82.2728 48C83.3948 44.422 84 40.8343 84 37.3551C84 25.5506 75.036 16 63.984 16C57.468 16 51.636 19.3618 48 24.5573C44.364 19.3618 38.568 16 32.016 16C20.964 16 12 25.5506 12 37.3551C12 41.7465 12.6896 45.9801 13.9614 50M82.2728 48C77.6253 62.8198 64.1104 77.4746 48 83.5821C32.152 77.574 18.8156 65.3437 13.9614 50M82.2728 48H72.4142C72.149 48 71.8946 47.8946 71.7071 47.7071L66.9811 42.9811C66.4984 42.4984 65.6848 42.6305 65.3795 43.241L60.6205 52.759C60.3152 53.3695 59.5016 53.5016 59.0189 53.0189L54.8347 48.8347C54.3978 48.3978 53.673 48.4577 53.3139 48.9606L45.2893 60.1949C44.7886 60.896 43.6949 60.678 43.5012 59.8386L38.585 38.5351C38.3791 37.6426 37.1813 37.4737 36.7365 38.2743L28.7489 52.652C28.3971 53.2853 27.5095 53.3459 27.0747 52.7663L22.6918 46.9224C22.3267 46.4356 21.615 46.385 21.1847 46.8153L18.2929 49.7071C18.1054 49.8946 17.851 50 17.5858 50H15.7929H13.9614" stroke="#065DB4" stroke-width="4" stroke-linecap="round" stroke-linejoin="round"/>
</svg>
