<svg width="72" height="72" viewBox="0 0 72 72" fill="none" xmlns="http://www.w3.org/2000/svg">
<path d="M51.8344 19.8859L57.1377 25.1892M51.8344 19.8859L46.5311 14.5826M51.8344 19.8859L57.1377 14.5826M44.4098 12.4613C45.2382 13.2897 46.5311 14.5826 46.5311 14.5826M59.2591 27.3105C58.4306 26.4821 57.1377 25.1892 57.1377 25.1892M57.1377 25.1892L46.5311 35.7958M46.5311 14.5826L35.9245 25.1892M30.6212 47.4631L32.0354 48.8773C32.426 49.2678 33.0591 49.2678 33.4497 48.8773L46.5311 35.7958M30.6212 47.4631L29.5606 48.5237C27.8032 50.2811 24.954 50.2811 23.1966 48.5237V48.5237V48.5237C21.4392 46.7664 21.4392 43.9171 23.1966 42.1598L24.2573 41.0991M30.6212 47.4631L24.2573 41.0991M24.2573 41.0991L22.8431 39.6849C22.4525 39.2944 22.4525 38.6612 22.8431 38.2707L35.9245 25.1892M35.9245 25.1892L46.5311 35.7958M57.1377 14.5826L55.0746 12.5195C55.0368 12.4817 55.0124 12.4326 55.0051 12.3797C54.9987 12.3332 55.0551 12.3051 55.0883 12.3383L59.382 16.632C59.4152 16.6652 59.3871 16.7216 59.3406 16.7152C59.2877 16.7079 59.2386 16.6835 59.2008 16.6457L57.1377 14.5826Z" stroke="#065DB4" stroke-width="3" stroke-linecap="round"/>
<path d="M14.4849 57.2349L23.1963 48.5234" stroke="#065DB4" stroke-width="3" stroke-linecap="round"/>
<path d="M35.925 44.2815L33.8037 42.1602" stroke="#065DB4" stroke-width="3" stroke-linecap="round"/>
<path d="M39.1067 41.0998L36.9854 38.9785" stroke="#065DB4" stroke-width="3" stroke-linecap="round"/>
<path d="M42.2893 37.9182L40.168 35.7969" stroke="#065DB4" stroke-width="3" stroke-linecap="round"/>
</svg>
