<svg width="213" height="213" viewBox="0 0 213 213" fill="none" xmlns="http://www.w3.org/2000/svg">
<path d="M66.5625 44.375H50.375C47.5466 44.375 46.1324 44.375 45.2537 45.2537C44.375 46.1324 44.375 47.5466 44.375 50.375V138.875C44.375 144.532 44.375 147.36 46.1324 149.118C47.8897 150.875 50.7181 150.875 56.375 150.875H88.75M66.5625 44.375C66.5625 49.2765 70.536 53.25 75.4375 53.25C80.339 53.25 84.3125 49.2765 84.3125 44.375C84.3125 39.4735 80.339 35.5 75.4375 35.5C70.536 35.5 66.5625 39.4735 66.5625 44.375ZM115.375 44.375C115.375 49.2765 111.402 53.25 106.5 53.25C101.598 53.25 97.625 49.2765 97.625 44.375C97.625 39.4735 101.598 35.5 106.5 35.5C111.402 35.5 115.375 39.4735 115.375 44.375ZM115.375 44.375H127.125C129.953 44.375 131.368 44.375 132.246 45.2537C133.125 46.1324 133.125 47.5466 133.125 50.375V138.875C133.125 144.532 133.125 147.36 131.368 149.118C129.61 150.875 126.782 150.875 121.125 150.875H88.75M88.75 150.875C88.75 195.25 164.187 199.688 164.188 150.875V115.375" stroke="white" stroke-width="7"/>
<path d="M177.5 102.062C177.5 109.415 171.54 115.375 164.188 115.375C156.835 115.375 150.875 109.415 150.875 102.062C150.875 94.7102 156.835 88.75 164.188 88.75C171.54 88.75 177.5 94.7102 177.5 102.062Z" stroke="white" stroke-width="7"/>
<path d="M164.188 101.975H164.276V102.063H164.188V101.975Z" stroke="white" stroke-width="7" stroke-linejoin="round"/>
</svg>
