<svg width="72" height="72" viewBox="0 0 72 72" fill="none" xmlns="http://www.w3.org/2000/svg">
<path d="M36 13.5C36 13.5 36 21.799 36 30M36 30C31.5 30 31.5 36 30 39M36 30C40.5 30 40.5 36 42 39" stroke="#065DB4" stroke-width="3" stroke-linecap="round"/>
<path d="M30.0005 51.0005C34.41 43.6514 27.2265 41.8634 28.4164 25.0548C28.4627 24.4008 28.2081 23.7357 27.6606 23.375C19.1884 17.7928 8.66659 32.2001 11.4923 51.1999C11.7425 52.8827 13.13 54.152 14.8209 54.3396C20.9015 55.0138 27.475 55.2098 30.0005 51.0005Z" stroke="#065DB4" stroke-width="3" stroke-linecap="round"/>
<path d="M41.9995 51.0005C37.59 43.6514 44.7735 41.8634 43.5836 25.0548C43.5373 24.4008 43.7919 23.7358 44.3394 23.375C52.8116 17.7928 63.3334 32.2001 60.5077 51.1999C60.2575 52.8827 58.87 54.1521 57.1791 54.3396C51.0985 55.0138 44.525 55.2098 41.9995 51.0005Z" stroke="#065DB4" stroke-width="3" stroke-linecap="round"/>
</svg>
