<svg width="72" height="72" viewBox="0 0 72 72" fill="none" xmlns="http://www.w3.org/2000/svg">
<path d="M32.9996 64.5V15C32.9996 13 33.2996 9 28.4996 9C23.7676 9 22.7676 14.5981 25.4996 16.9641M32.9996 64.5C27.6449 64.5 25.8743 59.7212 27.6878 56.5609M23.5917 13.2401C22.2315 12.9918 20.8253 13.1354 19.4976 13.6581C18.17 14.1808 16.9618 15.0665 15.9801 16.2367C14.9985 17.4069 14.2736 18.8255 13.8698 20.3668C13.466 21.9082 13.3957 23.5248 13.6651 25.0733C13.9345 26.6218 14.5353 28.0545 15.4143 29.2445C16.2933 30.4345 17.4233 31.345 18.7043 31.8954M18.6448 51.1033C18.1993 51.966 17.9778 52.9609 17.9997 53.9999C18.0216 55.039 18.2863 56.0901 18.7704 57.0602C19.2544 58.0303 19.943 58.8894 20.7749 59.5615C21.6068 60.2335 22.5565 60.6977 23.5399 60.913C24.5232 61.1283 25.5098 61.088 26.4123 60.7956M15.4525 29.9317C14.5937 30.0288 13.7771 30.3631 13.0749 30.9049C12.3728 31.4468 11.8068 32.1794 11.4271 33.0381C11.0475 33.8967 10.8658 34.8548 10.8982 35.8274C10.9307 36.8001 11.1762 37.7573 11.6131 38.6142C12.05 39.4712 12.6648 40.2015 13.403 40.7404C14.1411 41.2793 14.9799 41.6102 15.8451 41.7038M14.1964 41.5261C13.3497 42.1062 12.6594 42.8863 12.1864 43.7975C11.7135 44.7086 11.4727 45.7226 11.4852 46.7496C11.4977 47.7767 11.7633 48.785 12.2583 49.6854C12.7533 50.5858 13.4625 51.3504 14.3231 51.9115C15.1837 52.4726 16.1691 52.8129 17.1921 52.9022" stroke="#065DB4" stroke-width="3" stroke-linecap="round"/>
<path d="M22.906 36.9283C23.8036 36.9619 24.6946 36.7417 25.5001 36.2873C26.3056 35.8328 27.0007 35.1581 27.5238 34.3229C28.0469 33.4877 28.3819 32.5178 28.4992 31.4991C28.6164 30.4804 28.5122 29.4443 28.1959 28.4826C27.8795 27.521 27.3607 26.6635 26.6855 25.986" stroke="#065DB4" stroke-width="3" stroke-linecap="round" stroke-linejoin="round"/>
<path d="M32.868 44.831C31.9332 44.832 31.0338 45.046 30.2496 45.4539C29.4654 45.8617 28.8206 46.451 28.3723 47.1695C27.9239 47.8879 27.6859 48.7133 27.6792 49.5727" stroke="#065DB4" stroke-width="3" stroke-linecap="round" stroke-linejoin="round"/>
<path d="M19.669 43.1124C20.1804 43.1066 20.6702 43.2314 21.0949 43.4757C21.5197 43.72 21.8663 44.0763 22.104 44.5129C22.3418 44.9496 22.4634 45.4532 22.4581 45.9791" stroke="#065DB4" stroke-width="3" stroke-linecap="round" stroke-linejoin="round"/>
<path d="M22.4994 20.9994C22.1308 20.8857 21.7367 20.878 21.352 20.9769C20.9674 21.0759 20.604 21.2786 20.2942 21.5669C19.9843 21.8552 19.7376 22.2203 19.5757 22.6299C19.4138 23.0395 19.3419 23.4809 19.3662 23.9149C19.3906 24.349 19.5105 24.7624 19.7153 25.1185" stroke="#065DB4" stroke-width="3" stroke-linecap="round" stroke-linejoin="round"/>
<path d="M39.0033 64.5V15C39.0033 13 38.7033 9 43.5033 9C48.1828 9 49.2127 14.4745 46.5929 16.8841M39.0033 64.5C44.358 64.5 46.1286 59.7212 44.3151 56.5609M48.4113 13.2401C49.7714 12.9918 51.1776 13.1354 52.5053 13.6581C53.833 14.1808 55.0411 15.0665 56.0228 16.2367C57.0045 17.4069 57.7293 18.8255 58.1331 20.3668C58.5369 21.9082 58.6072 23.5248 58.3378 25.0733C58.0684 26.6218 57.4676 28.0545 56.5887 29.2445C55.7097 30.4345 54.5796 31.345 53.2986 31.8954M53.3582 51.1033C53.8037 51.966 54.0253 52.9609 54.0034 53.9999C53.9815 55.039 53.7167 56.0901 53.2327 57.0602C52.7486 58.0303 52.0601 58.8894 51.2281 59.5615C50.3962 60.2335 49.4465 60.6977 48.4631 60.913C47.4798 61.1283 46.4932 61.088 45.5907 60.7956M56.5504 29.9317C57.4092 30.0288 58.2259 30.3631 58.928 30.9049C59.6301 31.4468 60.1961 32.1794 60.5758 33.0381C60.9555 33.8967 61.1371 34.8548 61.1047 35.8274C61.0723 36.8001 60.8267 37.7573 60.3898 38.6142C59.9529 39.4712 59.3382 40.2015 58.6 40.7404C57.8618 41.2793 57.023 41.6102 56.1578 41.7038M57.8065 41.5261C58.6532 42.1062 59.3436 42.8863 59.8165 43.7975C60.2894 44.7086 60.5303 45.7226 60.5177 46.7496C60.5052 47.7767 60.2397 48.785 59.7446 49.6854C59.2496 50.5858 58.5404 51.3504 57.6798 51.9115C56.8192 52.4726 55.8338 52.8129 54.8108 52.9022" stroke="#065DB4" stroke-width="3" stroke-linecap="round"/>
<path d="M50.6652 36.1969C49.7859 36.3803 48.8706 36.3124 48.0004 35.9993C47.1302 35.6861 46.3319 35.1373 45.6763 34.4015C45.0207 33.6657 44.5281 32.7656 44.2419 31.7808C43.9558 30.7961 43.885 29.7573 44.0358 28.7562" stroke="#065DB4" stroke-width="3" stroke-linecap="round" stroke-linejoin="round"/>
<path d="M46.1847 50.0994C47.1187 50.0598 48.0084 49.8089 48.7751 49.369C49.5418 48.9291 50.1618 48.3137 50.5801 47.5774C50.9984 46.841 51.2022 46.0065 51.1733 45.1476" stroke="#065DB4" stroke-width="3" stroke-linecap="round" stroke-linejoin="round"/>
<path d="M44.5036 40.7198C44.3153 41.1953 44.2568 41.6973 44.3331 42.1814C44.4094 42.6654 44.6182 43.1164 44.941 43.4946C45.2638 43.8728 45.6906 44.1664 46.1837 44.3495" stroke="#065DB4" stroke-width="3" stroke-linecap="round" stroke-linejoin="round"/>
<path d="M50.0844 22.0622C50.4377 22.217 50.7411 22.4687 50.9675 22.795C51.194 23.1213 51.3366 23.5121 51.3828 23.9328C51.4289 24.3535 51.3771 24.7912 51.232 25.207C51.0869 25.6228 50.8529 26.0039 50.5508 26.3166C50.2487 26.6293 49.8878 26.8638 49.5001 26.9996" stroke="#065DB4" stroke-width="3" stroke-linecap="round" stroke-linejoin="round"/>
</svg>
