<svg width="24" height="24" viewBox="0 0 24 24" fill="none" xmlns="http://www.w3.org/2000/svg">
<path opacity="0.5" d="M8.5 15.5C7.5 15.5 5.5 16.5 5.5 19" stroke="#22202A" stroke-linecap="round"/>
<path opacity="0.5" d="M15.5 15.5C16.5 15.5 18.5 16.5 18.5 19" stroke="#22202A" stroke-linecap="round"/>
<path opacity="0.5" d="M14 15.5L12.1818 17.6818M11.5 18.5L12.1818 17.6818M10 15.5L12.1818 17.6818" stroke="#22202A" stroke-linecap="round"/>
<path opacity="0.5" d="M8.25 17.25V18.75M7.5 18H9" stroke="#22202A" stroke-linecap="round"/>
<path d="M9.35613 13.4789C9.62062 13.5583 9.89937 13.4082 9.97871 13.1437C10.0581 12.8792 9.90797 12.6004 9.64348 12.5211L9.35613 13.4789ZM8.22245 5.08398C7.73264 5.41052 7.30874 6.02971 7.00316 6.72345C6.69082 7.43255 6.47158 8.28782 6.43768 9.15548C6.40382 10.0223 6.55434 10.9298 7.01351 11.7149C7.47899 12.5108 8.24112 13.1444 9.35613 13.4789L9.64348 12.5211C8.75849 12.2556 8.20811 11.7767 7.87672 11.2101C7.53902 10.6327 7.40828 9.9277 7.43692 9.19452C7.46553 8.46218 7.65253 7.72995 7.91832 7.12655C8.19087 6.50779 8.51697 6.08948 8.77715 5.91602L8.22245 5.08398Z" fill="#22202A"/>
<path d="M14.6439 13.4789C14.3794 13.5583 14.1006 13.4082 14.0213 13.1437C13.9419 12.8792 14.092 12.6004 14.3565 12.5211L14.6439 13.4789ZM15.7775 5.08398C16.2674 5.41052 16.6913 6.02971 16.9968 6.72345C17.3092 7.43255 17.5284 8.28782 17.5623 9.15548C17.5962 10.0223 17.4457 10.9298 16.9865 11.7149C16.521 12.5108 15.7589 13.1444 14.6439 13.4789L14.3565 12.5211C15.2415 12.2556 15.7919 11.7767 16.1233 11.2101C16.461 10.6327 16.5917 9.9277 16.5631 9.19452C16.5345 8.46218 16.3475 7.72995 16.0817 7.12655C15.8091 6.50779 15.483 6.08948 15.2228 5.91602L15.7775 5.08398Z" fill="#22202A"/>
<path d="M9.12423 9.5C9.0434 9.81685 9 10.1525 9 10.5C9 12.433 10.3431 14.5 12 14.5C13.6569 14.5 15 12.433 15 10.5C15 10.1525 14.9566 9.81685 14.8758 9.5" stroke="#22202A" stroke-linecap="round"/>
<path d="M12.9998 7.5C12.5601 7.93964 11.3473 9.15241 8.68164 9.43882" stroke="#22202A" stroke-linecap="round"/>
<path d="M12.5 8.5C13 9 13.5 9.5 15 9.5" stroke="#22202A" stroke-linecap="round"/>
<path opacity="0.5" d="M15.85 3.97517C15.9328 3.83168 15.8839 3.64766 15.7374 3.57026C14.587 2.96238 13.3042 2.64356 12 2.64356C10.6958 2.64356 9.413 2.96238 8.26257 3.57026C8.11608 3.64766 8.06716 3.83168 8.15 3.97517L9.52822 6.36231C9.61106 6.5058 9.79416 6.55402 9.94269 6.48061C10.5812 6.16505 11.2851 6 12 6C12.7149 6 13.4188 6.16505 14.0573 6.48061C14.2058 6.55402 14.3889 6.5058 14.4718 6.36231L15.85 3.97517Z" stroke="#22202A"/>
</svg>
