<svg width="72" height="72" viewBox="0 0 72 72" fill="none" xmlns="http://www.w3.org/2000/svg">
<path d="M28.7127 49.4672C27.4426 52.2297 27.0298 55.3096 25.9502 58.1356C25.3228 60.4854 23.1495 59.8725 21.7272 58.5484C13.0713 48.9028 6.51435 25.5198 16.7738 14.6667C22.0183 8.83108 26.9998 17.0078 35.9998 17.0078C44.9998 17.0078 50.0474 8.885 55.2576 14.6667C65.5216 25.6032 58.7767 48.8937 50.082 58.5484C48.7432 59.9942 46.4322 60.4228 45.8272 58.1356C44.7476 55.3096 44.3666 52.2297 43.0965 49.4672C40.2696 42.6628 31.6252 42.9298 28.7127 49.4672Z" stroke="#065DB4" stroke-width="3" stroke-miterlimit="10"/>
<path d="M51 18C54 19.5 54 22.5 54 24" stroke="#065DB4" stroke-width="3" stroke-linecap="round"/>
</svg>
