<svg width="72" height="72" viewBox="0 0 72 72" fill="none" xmlns="http://www.w3.org/2000/svg">
<path d="M22.5 15H21C18.1716 15 16.7574 15 15.8787 15.8787C15 16.7574 15 18.1716 15 21V39C15 44.6569 15 47.4853 16.7574 49.2426C18.5147 51 21.3431 51 27 51H30M22.5 15C22.5 16.6569 23.8431 18 25.5 18C27.1569 18 28.5 16.6569 28.5 15C28.5 13.3431 27.1569 12 25.5 12C23.8431 12 22.5 13.3431 22.5 15ZM39 15C39 16.6569 37.6569 18 36 18C34.3431 18 33 16.6569 33 15C33 13.3431 34.3431 12 36 12C37.6569 12 39 13.3431 39 15ZM39 15V15C41.8284 15 43.2426 15 44.1213 15.8787C45 16.7574 45 18.1716 45 21V39C45 44.6569 45 47.4853 43.2426 49.2426C41.4853 51 38.6569 51 33 51H30M30 51C30 66 55.5 67.5 55.5 51V39" stroke="#065DB4" stroke-width="3"/>
<path d="M60 34.5C60 36.9853 57.9853 39 55.5 39C53.0147 39 51 36.9853 51 34.5C51 32.0147 53.0147 30 55.5 30C57.9853 30 60 32.0147 60 34.5Z" stroke="#065DB4" stroke-width="3"/>
<path d="M55.5 34.4707H55.53V34.5007H55.5V34.4707Z" stroke="#065DB4" stroke-width="3" stroke-linejoin="round"/>
</svg>
