<svg width="28" height="28" viewBox="0 0 28 28" fill="none" xmlns="http://www.w3.org/2000/svg">
<path d="M23.987 11.8872L15.237 3.13716C14.9089 2.80922 14.4639 2.625 14 2.625C13.5361 2.625 13.0911 2.80922 12.763 3.13716L4.01298 11.8872C3.84969 12.0492 3.72025 12.2422 3.63218 12.4547C3.54412 12.6673 3.49919 12.8952 3.50001 13.1253V23.6253C3.50001 23.8573 3.5922 24.0799 3.75629 24.244C3.92039 24.4081 4.14295 24.5003 4.37501 24.5003H11.375C11.6071 24.5003 11.8296 24.4081 11.9937 24.244C12.1578 24.0799 12.25 23.8573 12.25 23.6253V17.5003H15.75V23.6253C15.75 23.8573 15.8422 24.0799 16.0063 24.244C16.1704 24.4081 16.3929 24.5003 16.625 24.5003H23.625C23.8571 24.5003 24.0796 24.4081 24.2437 24.244C24.4078 24.0799 24.5 23.8573 24.5 23.6253V13.1253C24.5008 12.8952 24.4559 12.6673 24.3678 12.4547C24.2798 12.2422 24.1503 12.0492 23.987 11.8872ZM22.75 22.7503H17.5V16.6253C17.5 16.3932 17.4078 16.1707 17.2437 16.0066C17.0796 15.8425 16.8571 15.7503 16.625 15.7503H11.375C11.1429 15.7503 10.9204 15.8425 10.7563 16.0066C10.5922 16.1707 10.5 16.3932 10.5 16.6253V22.7503H5.25001V13.1253L14 4.37528L22.75 13.1253V22.7503Z" fill="#063463"/>
</svg>
