<svg width="24" height="20" viewBox="0 0 24 20" fill="none" xmlns="http://www.w3.org/2000/svg">
<path d="M14.872 10.6153H20.308V9.28201H14.872V10.6153ZM14.872 6.92202H20.308V5.58868H14.872V6.92202ZM3.692 14.41H12.5133V14.1887C12.5133 13.4109 12.1222 12.8091 11.34 12.3833C10.5578 11.9576 9.47867 11.7442 8.10267 11.7433C6.72667 11.7425 5.64711 11.9558 4.864 12.3833C4.08089 12.8109 3.69022 13.4127 3.692 14.1887V14.41ZM8.10267 9.58868C8.66533 9.58868 9.13911 9.39624 9.524 9.01135C9.90889 8.62646 10.1018 8.15224 10.1027 7.58868C10.1036 7.02513 9.91067 6.55135 9.524 6.16735C9.13733 5.78335 8.66356 5.59046 8.10267 5.58868C7.54178 5.5869 7.068 5.77979 6.68133 6.16735C6.29467 6.5549 6.10178 7.02868 6.10267 7.58868C6.10356 8.14868 6.29644 8.6229 6.68133 9.01135C7.06622 9.39979 7.54 9.59224 8.10267 9.58868ZM2.15333 19.3327C1.54 19.3327 1.028 19.1273 0.617333 18.7167C0.206667 18.306 0.000888889 17.7936 0 17.1793V2.81935C0 2.20602 0.205778 1.69402 0.617333 1.28335C1.02889 0.872682 1.54089 0.666905 2.15333 0.666016H21.8467C22.46 0.666016 22.972 0.871793 23.3827 1.28335C23.7933 1.6949 23.9991 2.2069 24 2.81935V17.1793C24 17.7927 23.7947 18.3047 23.384 18.7153C22.9733 19.126 22.4609 19.3318 21.8467 19.3327H2.15333ZM2.15333 17.9993H21.8467C22.0511 17.9993 22.2391 17.914 22.4107 17.7433C22.5822 17.5727 22.6676 17.3847 22.6667 17.1793V2.81935C22.6667 2.6149 22.5813 2.4269 22.4107 2.25535C22.24 2.08379 22.052 1.99846 21.8467 1.99935H2.15333C1.94889 1.99935 1.76089 2.08468 1.58933 2.25535C1.41778 2.42602 1.33244 2.61402 1.33333 2.81935V17.1793C1.33333 17.3838 1.41867 17.5718 1.58933 17.7433C1.76 17.9149 1.948 18.0002 2.15333 17.9993Z" fill="#063463"/>
</svg>
