<svg width="72" height="72" viewBox="0 0 72 72" fill="none" xmlns="http://www.w3.org/2000/svg">
<path d="M13.228 52.5004L20.9129 44.8155C21.3034 44.425 21.2934 43.7958 20.9835 43.3387C19.5002 41.1513 19.8134 38.0537 21.8642 36.003C24.1699 33.6973 27.7989 33.5879 29.9697 35.7587C30.9175 36.7066 31.4307 37.9325 31.5161 39.2048C31.525 39.3376 31.6316 39.4442 31.7644 39.4531C33.0368 39.5385 34.2626 40.0517 35.2105 40.9996C37.3813 43.1704 37.272 46.7993 34.9663 49.105C32.9155 51.1558 29.8179 51.469 27.6306 49.9858C27.1735 49.6758 26.5442 49.6658 26.1537 50.0563L18.3153 57.8947" stroke="#065DB4" stroke-width="3" stroke-linecap="round"/>
<path d="M52.4995 13.2279L44.7966 20.9308C44.4061 21.3213 43.7769 21.3113 43.3197 21.0015C41.1318 19.5188 38.0316 19.8346 35.9777 21.8886C33.6684 24.1978 33.5562 27.8296 35.727 30.0004C36.6748 30.9483 37.9012 31.4609 39.1743 31.5454C39.3073 31.5542 39.4141 31.6609 39.4229 31.794C39.5074 33.0671 40.02 34.2934 40.9678 35.2413C43.1386 37.4121 46.7705 37.2999 49.0797 34.9906C51.1336 32.9367 51.4495 29.8365 49.9668 27.6486C49.6569 27.1914 49.6469 26.5622 50.0375 26.1716L57.8701 18.339" stroke="#065DB4" stroke-width="3" stroke-linecap="round"/>
<path d="M25.5 25.5L24 24" stroke="#065DB4" stroke-width="3" stroke-linecap="round"/>
<path d="M30 24L30 22.5" stroke="#065DB4" stroke-width="3" stroke-linecap="round"/>
<path d="M24 30L22.5 30" stroke="#065DB4" stroke-width="3" stroke-linecap="round"/>
<path d="M46.5 46.5L48 48" stroke="#065DB4" stroke-width="3" stroke-linecap="round"/>
<path d="M42 48L42 49.5" stroke="#065DB4" stroke-width="3" stroke-linecap="round"/>
<path d="M48 42L49.5 42" stroke="#065DB4" stroke-width="3" stroke-linecap="round"/>
</svg>
