<svg viewBox="0 0 26 25" fill="none" xmlns="http://www.w3.org/2000/svg">
<path fill-rule="evenodd" clip-rule="evenodd" d="M11.5627 0.5C9.81197 0.500144 8.08665 0.905455 6.5307 1.68212C4.97475 2.45878 3.63328 3.58427 2.61822 4.96469C1.60315 6.34511 0.943926 7.94043 0.695537 9.61755C0.447147 11.2947 0.616798 13.005 1.19034 14.6057C1.76387 16.2065 2.72467 17.6513 3.99255 18.8197C5.26044 19.988 6.79866 20.846 8.47887 21.322C10.1591 21.798 11.9326 21.8783 13.6514 21.5561C15.3701 21.234 16.9844 20.5187 18.3595 19.47L23.0766 24.035C23.3202 24.2627 23.6465 24.3887 23.9852 24.3858C24.3239 24.383 24.6478 24.2515 24.8873 24.0198C25.1268 23.788 25.2626 23.4745 25.2656 23.1468C25.2685 22.819 25.1383 22.5033 24.903 22.2675L20.1859 17.7025C21.462 16.1358 22.2566 14.253 22.4787 12.2697C22.7008 10.2863 22.3414 8.28253 21.4417 6.48762C20.5419 4.69271 19.1382 3.1792 17.3911 2.12029C15.644 1.06138 13.6242 0.499866 11.5627 0.5ZM3.16687 11.125C3.16687 8.97012 4.05143 6.90349 5.62595 5.37976C7.20048 3.85602 9.33599 3 11.5627 3C13.7894 3 15.9249 3.85602 17.4995 5.37976C19.074 6.90349 19.9585 8.97012 19.9585 11.125C19.9585 13.2799 19.074 15.3465 17.4995 16.8702C15.9249 18.394 13.7894 19.25 11.5627 19.25C9.33599 19.25 7.20048 18.394 5.62595 16.8702C4.05143 15.3465 3.16687 13.2799 3.16687 11.125Z" fill="#234C76"/>
</svg>
